<?xml version="1.0" encoding="UTF-8" standalone="no"?>
<!-- Created with Inkscape (http://www.inkscape.org/) -->

<svg
   version="1.1"
   id="svg2"
   xml:space="preserve"
   width="101.33333"
   height="77.333336"
   viewBox="0 0 101.33333 77.333336"
   sodipodi:docname="fssai_logo.eps"
   xmlns:inkscape="http://www.inkscape.org/namespaces/inkscape"
   xmlns:sodipodi="http://sodipodi.sourceforge.net/DTD/sodipodi-0.dtd"
   xmlns="http://www.w3.org/2000/svg"
   xmlns:svg="http://www.w3.org/2000/svg"><defs
     id="defs6" /><sodipodi:namedview
     id="namedview4"
     pagecolor="#ffffff"
     bordercolor="#666666"
     borderopacity="1.0"
     inkscape:pageshadow="2"
     inkscape:pageopacity="0.0"
     inkscape:pagecheckerboard="0" /><g
     id="g8"
     inkscape:groupmode="layer"
     inkscape:label="ink_ext_XXXXXX"
     transform="matrix(1.3333333,0,0,-1.3333333,0,77.333333)"><g
       id="g10"
       transform="scale(0.1)"><path
         d="m 501.414,247.102 0.152,0.601 z m -52.555,-40.586 c -18.125,0 -6.308,40.047 -3.16,49.039 3.356,9.582 12.559,29.496 20.477,35.39 9.101,6.789 19.144,6.746 30.031,5.164 2.422,-0.343 12.859,-2.57 15.207,-3.683 l -3.809,-18.996 -6.191,-12.434 c -2.098,-4.043 -8.195,-13.863 -10.766,-17.301 l -12.031,-15.48 -11.199,-12.184 c -3.926,-3.926 -13.023,-9.515 -18.559,-9.515 z m 52.555,40.586 c 0,-1.801 -2.539,-13.868 -3.094,-16.661 -1.086,-5.511 -2.05,-10.914 -3.191,-16.539 -2.234,-11.039 0.766,-24.316 13.769,-24.363 12.653,-0.035 24.075,7.902 32.075,14.668 2.836,2.395 3.734,3.496 6.382,6.117 0.872,0.875 4.079,4.649 4.422,5.594 0.246,0.719 1.34,7.625 1.34,8.664 l -6.512,-6.824 c -0.042,-0.043 -0.101,-0.113 -0.121,-0.153 -0.293,-0.277 0,-0.023 -0.441,-0.41 -3.605,-3.113 -6.586,-6.484 -11.055,-9.511 -3.73,-2.555 -11.55,-8.098 -16.308,-5.309 -5,2.934 -1.91,14.563 -1.071,18.805 0.606,3.097 1.371,6.336 2.039,9.636 3.204,16.196 6.946,32.262 10.149,48.239 l 6.086,29.211 c -3.113,0 -6.426,0.515 -8.34,0.574 -12.207,0.613 -24.953,1.199 -37.059,-0.766 -6.941,-1.121 -12.992,-2.847 -18.625,-5.277 -4.402,-1.891 -9.586,-4.832 -13.433,-7.711 l -4.957,-3.934 c -5.012,-3.773 -11.512,-10.105 -15.266,-14.761 -10.121,-12.575 -16.254,-24.196 -19.984,-40.075 -2.774,-11.851 -3.414,-28.753 4.594,-39.464 9.054,-12.133 22.996,-7.5 33.921,-0.997 3.024,1.805 5.801,4.083 8.524,6.227 0.68,0.484 0.988,0.887 1.64,1.414 3.571,2.883 6.028,5.539 9.282,8.781 l 5.683,6.278 c 5.371,6.343 14.2,18.808 18.332,26.699 0.504,0.941 0.446,1.297 1.219,1.848"
         style="fill:#2e3192;fill-opacity:1;fill-rule:evenodd;stroke:none"
         id="path12" /><path
         d="m 215.891,333.859 -19.071,0.176 v 11.231 l 21.285,0.136 c 0.032,1.891 0.778,4.653 1.133,6.5 3.266,16.473 2.895,26.707 13.633,40.02 7.82,9.672 21.231,12.922 33.426,9.316 2.125,-0.648 3.73,-1.324 5.547,-2.242 l 5.195,-2.594 16.477,16.336 c -1.555,0.114 -4.27,0.649 -5.703,0.828 -19.122,0.993 -36.192,-0.386 -53.145,-10.636 -18.961,-11.477 -32.617,-32.367 -37.297,-53.903 -1.008,-4.66 -0.402,-3.609 -2.601,-3.507 l -26.2,0.043 c -1.461,-0.071 -1.367,-0.204 -1.379,-1.676 l 0.039,-10.039 h 27.239 c 0,-1.582 -1.828,-10.696 -2.223,-13.075 -0.711,-4.293 -1.516,-8.546 -2.336,-12.941 -3.215,-16.949 -5.98,-35.394 -9.269,-52.176 -0.86,-4.371 -1.567,-8.625 -2.305,-12.996 -0.719,-4.383 -1.574,-8.707 -2.379,-13.176 -4.16,-23.168 -6.812,-55.476 -33.266,-58.75 -10.734,-1.343 -17.73,1.454 -26.625,3.524 l -3.296,-3.93 c -1.129,-1.39 -2.356,-2.539 -3.493,-4.008 l -5.957,-6.843 c -0.742,-0.942 -1.023,-0.946 -1.132,-2.258 13.792,0 27.679,-1.699 40.89,3.109 1.09,0.395 2.09,0.774 3.219,1.219 6.75,2.68 11.555,6.027 17.074,10.449 l 4.567,4.328 c 1.363,1.77 3.949,4.383 6.355,7.551 1.371,1.801 2.461,3.586 3.734,5.461 1.215,1.84 2.168,3.59 3.293,5.594 9.938,17.785 16.215,41.965 20.164,61.836 0.981,4.906 2.121,10.359 2.961,15.398 2.524,15.195 6.004,31.106 8.578,46.191 l 2.868,15.504"
         style="fill:#2e3192;fill-opacity:1;fill-rule:evenodd;stroke:none"
         id="path14" /><path
         d="m 215.891,333.859 438.152,-0.011 4.727,11.675 -80.352,0.086 -3.902,-0.175 c -3.418,0.437 -177.352,0.089 -178.493,0.089 -55.671,0 -111.375,0 -167.074,0 -3.164,0 -8.57,-0.257 -10.844,-0.121 l -21.285,-0.136 v -11.231 l 19.071,-0.176"
         style="fill:#f25b28;fill-opacity:1;fill-rule:evenodd;stroke:none"
         id="path16" /><path
         d="m 581.207,299.094 c 3.574,0 7.43,0.261 10.211,-2.563 4.727,-4.754 1.723,-13.996 0.695,-19.472 -0.73,-3.969 -1.39,-7.508 -2.175,-11.442 l -6.485,-34.101 c -1.258,-6.235 -6.144,-30.145 -6.144,-34.727 0,-6.508 0.464,-13.394 5.062,-18.027 4.52,-4.52 7.988,-5.895 14.953,-5.895 9.481,0 20.66,5.996 28.031,10.903 l 16.309,12.878 c 0.391,0.93 0.149,7.997 0.149,9.594 -1.297,-0.347 -2.532,-2.39 -4.129,-3.676 -5.141,-4.078 -6.903,-6.32 -13.719,-10.464 -3.934,-2.379 -12.836,-6.727 -16.762,-1.848 -3.64,4.527 -1.851,12.894 -0.816,18.043 l 23.468,115.816 c -1.375,-0.648 -3.769,-1.215 -5.449,-1.769 -8.894,-2.977 -18.808,-5.789 -27.672,-8.754 l -27.656,-8.774 c -2.926,-0.839 -4.703,-1.078 -4.844,-2.652 -0.769,-8.305 -0.957,-7.457 1.895,-6.629 0.891,0.262 2.055,0.524 3.086,0.817 2.281,0.648 9.89,2.742 11.992,2.742"
         style="fill:#f25b28;fill-opacity:1;fill-rule:evenodd;stroke:none"
         id="path18" /><path
         d="m 333.75,276.293 c 0,-9.367 2.906,-15.645 8.422,-21.059 l 15.812,-17.832 c 2.582,-3.207 5.008,-4.816 7.387,-9.574 5.461,-10.906 2.793,-22.699 -10.305,-25.652 -3.082,-0.684 -5.164,-0.469 -8.246,-0.391 -4.386,0.11 -10.332,2.195 -14.3,3.774 -6.165,2.468 -7.059,3.57 -12.102,6.23 -0.984,-1.465 -7.441,-7.723 -8.832,-9.238 l -5.356,-5.762 c 2.368,-1.258 11.188,-3.863 13.696,-4.394 17.812,-3.766 35.082,-2.758 50.09,7.601 3.464,2.406 8.113,6.953 10.269,10.598 1.453,2.445 2.356,3.941 3.352,6.926 3.14,9.496 1.168,19.371 -4.805,26.835 l -18.266,22.321 c -2.191,2.781 -5.5,6.207 -6.976,9.164 -1.965,3.949 -3.477,7.41 -2.875,12.969 0.945,8.855 11,13.894 18.621,13.894 3.516,0 6.289,0.094 9.707,-1.144 5.023,-1.809 10.32,-5.797 10.32,-11.914 0,-4.547 -0.34,-3.516 -0.566,-6.118 h 6.961 c 0.621,1.27 2.426,9.629 2.855,11.602 l 2.7,12.031 c -2.586,0.606 -4.438,1.961 -10.368,2.985 -11.871,2.027 -22.84,1.109 -33.843,-3.821 -3.942,-1.765 -9.102,-4.769 -12.145,-7.855 l -2.516,-2.5 c -4.847,-5.547 -8.691,-11.356 -8.691,-19.676"
         style="fill:#2e3192;fill-opacity:1;fill-rule:evenodd;stroke:none"
         id="path20" /><path
         d="m 235.617,275.461 c 0,-5.856 2.125,-12.594 5.68,-17.129 l 13.348,-15.012 c 0.511,-0.652 0.773,-0.855 1.339,-1.425 l 6.817,-7.653 c 2.949,-2.902 7.297,-10.047 7.297,-15.769 0,-5.469 -1.481,-10.024 -5.407,-12.95 -10.378,-7.812 -25.484,-2.609 -35.668,2.481 -1.16,0.566 -2.05,1.113 -3.226,1.758 -1.039,0.562 -2.156,1.496 -3.258,1.754 l -10.723,-10.95 c -1.441,-1.875 -3.113,-2.839 -3.445,-4.062 1.199,-0.27 2.109,-0.703 3.098,-1.07 1.125,-0.418 2.277,-0.77 3.324,-1.114 17.98,-6.054 41.797,-5.746 57.008,5.469 3.984,2.961 7.222,5.824 10.015,9.996 7.508,11.11 6.954,24.231 -1.168,34.817 l -23.285,28.418 c -1.066,1.195 -1.504,2.066 -2.215,3.628 -1.625,3.633 -2.57,5.715 -2.57,10.215 0,20.227 38.926,21.567 38.926,1.383 0,-2.023 -0.527,-3.051 -0.551,-4.719 8.051,0 6.953,-0.632 7.61,2.387 0.246,1.117 0.441,2.063 0.671,2.945 0.664,2.696 3.649,16.836 4.215,18.016 -5.652,2.992 -14.742,4.168 -22.508,4.168 -12.453,0 -26.886,-5.629 -33.304,-12.02 -0.965,-0.949 -1.696,-1.359 -2.649,-2.351 -0.574,-0.609 -0.613,-0.785 -1.113,-1.395 -3.867,-4.574 -6.625,-8.711 -7.707,-15.089 -0.199,-1.145 -0.551,-3.508 -0.551,-4.727"
         style="fill:#2e3192;fill-opacity:1;fill-rule:evenodd;stroke:none"
         id="path22" /><path
         d="m 596.215,355.527 c -1.512,-2.234 -6.235,-4.699 -9.27,-5.734 -2.226,-0.75 -6.539,-1.844 -9.101,-2.035 -1.364,-0.086 -2.473,-0.285 -3.598,-0.285 0,-1.133 -0.039,-1.223 0.27,-2.039 l 3.902,0.175 c 0.687,0.305 9.348,0.567 16.285,5.594 4.399,3.172 1.035,2.133 6.074,2.824 1.621,0.219 2.438,0.2 3.946,0.508 23.101,4.692 32.175,34.774 32.359,56.055 l 0.477,8.41 c 0.324,2.277 0.082,6.34 0.082,8.816 h -0.559 c -0.301,-3.675 -7.148,-14.039 -9.449,-17.242 -14.317,-16.008 -36.488,-31.719 -31.418,-55.047"
         style="fill:#278d30;fill-opacity:1;fill-rule:evenodd;stroke:none"
         id="path24" /><path
         d="m 594.547,363.051 v 0"
         style="fill:#a0402a;fill-opacity:1;fill-rule:evenodd;stroke:none"
         id="path26" /><path
         d="m 580.957,373.773 c 5.672,0 10.262,-4.585 10.262,-10.238 0,-5.656 -4.59,-10.242 -10.262,-10.242 -5.648,0 -10.238,4.586 -10.238,10.242 0,5.653 4.59,10.238 10.238,10.238"
         style="fill:#7a350e;fill-opacity:1;fill-rule:evenodd;stroke:none"
         id="path28" /><path
         d="m 620.879,164.305 -5.59,-11.184 H 102.066 v 2.09 c 26.707,-1.844 44.297,1.758 55.688,9.062 l 463.125,0.032"
         style="fill:#278d30;fill-opacity:1;fill-rule:evenodd;stroke:none"
         id="path30" /></g></g></svg>
