<?xml version="1.0" encoding="UTF-8" standalone="no"?>
<!-- Created with Inkscape (http://www.inkscape.org/) -->

<svg
   xmlns:dc="http://purl.org/dc/elements/1.1/"
   xmlns:cc="http://creativecommons.org/ns#"
   xmlns:rdf="http://www.w3.org/1999/02/22-rdf-syntax-ns#"
   xmlns:svg="http://www.w3.org/2000/svg"
   xmlns="http://www.w3.org/2000/svg"
   xmlns:sodipodi="http://sodipodi.sourceforge.net/DTD/sodipodi-0.dtd"
   xmlns:inkscape="http://www.inkscape.org/namespaces/inkscape"
   width="92.705925mm"
   height="248.28572mm"
   viewBox="0 0 328.48556 879.75255"
   id="svg4588"
   version="1.1"
   inkscape:version="0.91 r13725"
   sodipodi:docname="Icecream5.svg">
  <defs
     id="defs4590" />
  <sodipodi:namedview
     id="base"
     pagecolor="#ffffff"
     bordercolor="#666666"
     borderopacity="1.0"
     inkscape:pageopacity="0.0"
     inkscape:pageshadow="2"
     inkscape:zoom="0.76175908"
     inkscape:cx="164.79183"
     inkscape:cy="439.77161"
     inkscape:document-units="px"
     inkscape:current-layer="layer1"
     showgrid="false"
     fit-margin-top="0"
     fit-margin-left="0"
     fit-margin-right="0"
     fit-margin-bottom="0"
     inkscape:window-width="1600"
     inkscape:window-height="837"
     inkscape:window-x="-8"
     inkscape:window-y="-8"
     inkscape:window-maximized="1" />
  <metadata
     id="metadata4593">
    <rdf:RDF>
      <cc:Work
         rdf:about="">
        <dc:format>image/svg+xml</dc:format>
        <dc:type
           rdf:resource="http://purl.org/dc/dcmitype/StillImage" />
        <dc:title></dc:title>
      </cc:Work>
    </rdf:RDF>
  </metadata>
  <g
     inkscape:label="Layer 1"
     inkscape:groupmode="layer"
     id="layer1"
     transform="translate(1172.8142,687.51408)">
    <g
       id="g4644">
      <path
         style="opacity:1;fill:#020101;stroke:#020101;stroke-width:2;stroke-miterlimit:4;stroke-dasharray:none"
         id="path156069"
         d="m -1141.6036,-657.7513 c 12.0375,-28.375 47.8875,-26.95 73.6375,-28.55 11.525,1.275 23.1375,1.325 34.7375,0.6625 27.525,-0.05 55.0125,1.5875 82.5375,1.975 15.1875,1.35 30.45,1.025 45.7125,0.5375 13.8125,0.6375 31.025,1.3 39.6125,14.2 8.9625,13.8375 8.2625,31.0875 9.2875,46.875 -0.85,20.2875 -0.6,40.6125 -0.1875,60.9125 -0.1875,18.1125 -1.4875,36.2 -1.85,54.3125 -1.525,16.7625 -0.8125,33.6125 -1.25,50.425 -3.2875,-63.2625 -5.6,-126.6625 -12.625,-189.6375 -1.4,-17.8875 -19.1625,-27.825 -35.55,-28.225 -45.15,-8.6375 -90.6875,1.975 -136.0875,0.65 -28.625,1.0375 -63.725,-2.7125 -84.5625,21.75 -16.3,20.3 -13.0875,48.275 -16.2125,72.5125 -10.95,111.5 -9.525,223.55 -13.5375,335.3375 -0.3375,28.7375 6.875,56.875 11.175,85.1 5.85,20.325 29.325,25.325 47.2375,29.125 56.4,9.4375 113.775,1.5 170.575,3.3125 20.2125,-0.3 45.375,3.35 60.8375,-12.975 7.6625,-18.175 7.4125,-38.475 9.5625,-57.8 3.8625,-79.6875 1.8875,-159.575 0.725,-239.3 0.025,-0.6 0.0625,-1.8125 0.0875,-2.425 3.2625,46.9 6.7375,93.8625 7.7375,140.9 -0.4625,11 -0.4875,22.05 0.625,33.05 1.3375,14.775 2.25,29.5875 4.05,44.325 l 0,43.2125 c -3.3,20.0375 -13.2875,41.1125 -33.475,48.7625 -25.6125,12.725 -54.4625,4.425 -81.475,3.75 -0.9375,81.4625 -5.1625,162.8875 -5.2875,244.375 -1.225,17.8 -3.025,36.1125 -9.7625,52.8125 -5.4375,15.8 -25.2875,22.975 -40.25,16.825 -14.75,-6.7 -17.775,-24.175 -20.7125,-38.3375 -13.9125,-87.8125 -5.7375,-177.1 -7.5,-265.5625 -31.4375,3.25 -69.275,4.5625 -93.2625,-19.925 -29.9875,-31.2375 -30.7,-78.525 -30.825,-119.1375 1.0625,-56.175 -2.7,-112.25 -2.8375,-168.4 0.575,-21.475 0.5,-42.95 0.1875,-64.4125 1.2875,-57.75 6.0625,-117.2625 28.925,-171.0125 m 123.475,538.65 c -4.5,0.7 -9.4875,0.5375 -13.65,2.2125 -0.8625,0.125 -2.5875,0.4 -3.4375,0.525 -0.05,80.0625 -0.475,160.1375 0.225,240.1875 -0.013,19.3 7.6875,42.8625 27.475,50.1375 23.025,1.25 33.4375,-24.0875 35.7875,-43.2875 0.3625,-85.2625 0.0375,-170.525 0.1625,-255.7875 -15.625,0.9125 -31.025,4.2 -46.5625,6.0125 z"
         inkscape:connector-curvature="0" />
      <path
         style="opacity:1;fill:#fac307;stroke:#fac307;stroke-width:2;stroke-miterlimit:4;stroke-dasharray:none"
         id="path156075"
         d="m -1043.6286,-673.6138 c 45.4,1.325 90.9375,-9.2875 136.0875,-0.65 16.3875,0.4 34.15,10.3375 35.55,28.225 7.025,62.975 9.3375,126.375 12.625,189.6375 0.2125,6.6125 0.8625,13.225 1.5375,19.85 1.1625,79.725 3.1375,159.6125 -0.725,239.3 -2.15,19.325 -1.9,39.625 -9.5625,57.8 -15.4625,16.325 -40.625,12.675 -60.8375,12.975 -56.8,-1.8125 -114.175,6.125 -170.575,-3.3125 -17.9125,-3.8 -41.3875,-8.8 -47.2375,-29.125 -4.3,-28.225 -11.5125,-56.3625 -11.175,-85.1 4.0125,-111.7875 2.5875,-223.8375 13.5375,-335.3375 3.125,-24.2375 -0.087,-52.2125 16.2125,-72.5125 20.8375,-24.4625 55.9375,-20.7125 84.5625,-21.75 m -48.4375,5.2625 c -22.5625,2.5875 -43.15,20.1375 -45.775,43.2125 -13.475,110.675 -14.575,222.25 -17,333.5375 -3.875,35.0875 -2.1,70.875 5.5875,105.3375 1.5,16.675 2.5625,39.1875 21.5125,46.0125 45.9875,19.9375 97.4125,10.95 145.95,12.5125 33.1,-3.95 67.15,5.3 99.7,-4.225 23.5875,-8.1125 17.4625,-39.275 21.2875,-58.675 7.425,-137.8 -0.625,-276.0625 -9.275,-413.5 -4.9125,-20.7375 3.4375,-53.15 -20.8875,-64.0625 -66.925,1.075 -134.1125,-2.675 -201.1,-0.15 z"
         inkscape:connector-curvature="0" />
      <path
         style="opacity:1;fill:#fec200;stroke:#fec200;stroke-width:2;stroke-miterlimit:4;stroke-dasharray:none"
         id="path156077"
         d="m -1092.0661,-668.3513 c 66.9875,-2.525 134.175,1.225 201.1,0.15 24.325,10.9125 15.975,43.325 20.8875,64.0625 8.65,137.4375 16.7,275.7 9.275,413.5 -3.825,19.4 2.3,50.5625 -21.2875,58.675 -32.55,9.525 -66.6,0.275 -99.7,4.225 -48.5375,-1.5625 -99.9625,7.425 -145.95,-12.5125 -18.95,-6.825 -20.0125,-29.3375 -21.5125,-46.0125 -7.6875,-34.4625 -9.4625,-70.25 -5.5875,-105.3375 2.425,-111.2875 3.525,-222.8625 17,-333.5375 2.625,-23.075 23.2125,-40.625 45.775,-43.2125 m 166.3625,3.775 c -48.675,6.425 -98.125,16.95 -147.1625,8 -18.0875,-4.3875 -44.4375,1.2 -49.6875,21.2125 29.2375,5.6625 59.1,-8.3625 88.875,-9.55 36.7125,-0.175 75.0875,-4.2 109.8125,10.6625 12.2125,2.6375 29.8625,7.65 39.175,-3.1875 8.4375,-22.2625 -24.25,-32.725 -41.0125,-27.1375 m -112.6875,65 c -15.425,0.8375 -34.2625,7.7125 -38.0125,24.5 -10.5125,39.9125 1.575,81.475 -0.3875,121.9875 -3.1375,68.8 -17.85,138.0625 -4.9875,206.8125 2.6125,13.525 5.5625,30.5375 20.0375,36.275 30.425,13.5375 64.4375,8.8875 96.5875,7.45 18.2,-2.0125 41.3375,-9.8375 44.575,-30.575 -0.4125,-10.4875 -3.7375,-28.0875 -18.4875,-24.2375 -30.6,6.7 -61.8,-9.275 -77.5875,-35.375 -9.5125,-25.05 -7.325,-52.5125 -11.4125,-78.65 -2.8625,-50.3 -4.6,-103.3125 16.175,-150.4375 8.0375,-32.775 51.1375,-40.9625 56.0125,-74.2625 -27.4125,-2.2125 -54.975,-5.8125 -82.5125,-3.4875 z"
         inkscape:connector-curvature="0" />
      <path
         style="opacity:1;fill:#fed929;stroke:#fed929;stroke-width:2;stroke-miterlimit:4;stroke-dasharray:none"
         id="path156081"
         d="m -925.7036,-664.5763 c 16.7625,-5.5875 49.45,4.875 41.0125,27.1375 -9.3125,10.8375 -26.9625,5.825 -39.175,3.1875 -34.725,-14.8625 -73.1,-10.8375 -109.8125,-10.6625 -29.775,1.1875 -59.6375,15.2125 -88.875,9.55 5.25,-20.0125 31.6,-25.6 49.6875,-21.2125 49.0375,8.95 98.4875,-1.575 147.1625,-8 z"
         inkscape:connector-curvature="0" />
      <path
         style="opacity:1;fill:#feb101;stroke:#feb101;stroke-width:2;stroke-miterlimit:4;stroke-dasharray:none"
         id="path156085"
         d="m -1038.3911,-599.5763 c 27.5375,-2.325 55.1,1.275 82.5125,3.4875 -4.875,33.3 -47.975,41.4875 -56.0125,74.2625 -20.775,47.125 -19.0375,100.1375 -16.175,150.4375 4.0875,26.1375 1.9,53.6 11.4125,78.65 15.7875,26.1 46.9875,42.075 77.5875,35.375 14.75,-3.85 18.075,13.75 18.4875,24.2375 -3.2375,20.7375 -26.375,28.5625 -44.575,30.575 -32.15,1.4375 -66.1625,6.0875 -96.5875,-7.45 -14.475,-5.7375 -17.425,-22.75 -20.0375,-36.275 -12.8625,-68.75 1.85,-138.0125 4.9875,-206.8125 1.9625,-40.5125 -10.125,-82.075 0.3875,-121.9875 3.75,-16.7875 22.5875,-23.6625 38.0125,-24.5 z"
         inkscape:connector-curvature="0" />
      <path
         style="opacity:1;fill:#e2ce89;stroke:#e2ce89;stroke-width:2;stroke-miterlimit:4;stroke-dasharray:none"
         id="path156125"
         d="m -1018.1286,-119.1013 c 15.5375,-1.8125 30.9375,-5.1 46.5625,-6.0125 -0.125,85.2625 0.2,170.525 -0.1625,255.7875 -2.35,19.2 -12.7625,44.5375 -35.7875,43.2875 -9.975,-93.9875 -19.475,-193.3625 -7.05,-289.075 0.925,-2.55 -1.975,-3 -3.5625,-3.9875 z"
         inkscape:connector-curvature="0" />
      <path
         style="opacity:1;fill:#d8c67e;stroke:#d8c67e;stroke-width:2;stroke-miterlimit:4;stroke-dasharray:none"
         id="path156127"
         d="m -1031.7786,-116.8888 c 4.1625,-1.675 9.15,-1.5125 13.65,-2.2125 1.5875,0.9875 4.4875,1.4375 3.5625,3.9875 -12.425,95.7125 -2.925,195.0875 7.05,289.075 -19.7875,-7.275 -27.4875,-30.8375 -27.475,-50.1375 2.525,-79.45 -0.4625,-159.075 1.4625,-238.525 11.0375,1.425 5.0375,-2.35 1.75,-2.1875 z"
         inkscape:connector-curvature="0" />
      <path
         style="opacity:1;fill:#e3d6a1;stroke:#e3d6a1;stroke-width:2;stroke-miterlimit:4;stroke-dasharray:none"
         id="path156129"
         d="m -1035.2161,-116.3638 c 0.85,-0.125 2.575,-0.4 3.4375,-0.525 3.2875,-0.1625 9.2875,3.6125 -1.75,2.1875 -1.925,79.45 1.0625,159.075 -1.4625,238.525 -0.7,-80.05 -0.275,-160.125 -0.225,-240.1875 z"
         inkscape:connector-curvature="0" />
    </g>
  </g>
</svg>
